<svg width="35" height="32" viewBox="0 0 35 32" fill="none" xmlns="http://www.w3.org/2000/svg">
	<g clip-path="url(#clip0)">
		<path d="M11.0567 20.1103H29.1073C29.5543 20.1103 29.9464 19.8407 30.0674 19.4491L34.064 6.69013C34.1499 6.41507 34.0911 6.1196 33.9019 5.89105C33.7125 5.66322 33.418 5.52865 33.1037 5.52865H8.75017L8.03597 2.59718C7.9345 2.17972 7.52862 1.8833 7.06029 1.8833H0.999098C0.446992 1.8833 0 2.29103 0 2.79464C0 3.29848 0.446992 3.70598 0.999098 3.70598H6.25841L9.86635 18.5152C8.80481 18.9362 8.05939 19.9 8.05939 21.0216C8.05939 22.5291 9.40401 23.7556 11.0567 23.7556H29.1073C29.6597 23.7556 30.1064 23.3481 30.1064 22.8443C30.1064 22.3407 29.6597 21.933 29.1073 21.933H11.0567C10.5064 21.933 10.0576 21.5245 10.0576 21.0216C10.0576 20.5187 10.5064 20.1103 11.0567 20.1103Z" fill="#0B2D1F" />
		<path d="M10.0576 26.4899C10.0576 27.9976 11.4022 29.2239 13.0551 29.2239C14.7078 29.2239 16.0524 27.9976 16.0524 26.4899C16.0524 24.9824 14.7078 23.7559 13.0551 23.7559C11.4022 23.7559 10.0576 24.9824 10.0576 26.4899Z" fill="#0B2D1F" />
		<path d="M24.1118 26.4899C24.1118 27.9976 25.4564 29.2239 27.1091 29.2239C28.762 29.2239 30.1064 27.9976 30.1064 26.4899C30.1064 24.9824 28.762 23.7559 27.1091 23.7559C25.4564 23.7559 24.1118 24.9824 24.1118 26.4899Z" fill="#0B2D1F" />
	</g>
	<defs>
		<clipPath id="clip0">
			<rect width="34.1025" height="31.107" fill="white" />
		</clipPath>
	</defs>
</svg>
