<svg width="27" height="27" viewBox="0 0 27 27" fill="none" xmlns="http://www.w3.org/2000/svg">
	<path d="M8.77583 13.0905C8.77583 10.707 10.7076 8.77434 13.0911 8.77434C15.4747 8.77434 17.4074 10.707 17.4074 13.0905C17.4074 15.474 15.4747 17.4067 13.0911 17.4067C10.7076 17.4067 8.77583 15.474 8.77583 13.0905ZM6.4425 13.0905C6.4425 16.7624 9.41908 19.7388 13.0911 19.7388C16.7632 19.7388 19.7397 16.7624 19.7397 13.0905C19.7397 9.4186 16.7632 6.44215 13.0911 6.44215C9.41908 6.44215 6.44261 9.4184 6.44261 13.0905H6.4425ZM18.4493 6.17854C18.4492 6.48583 18.5402 6.78625 18.7108 7.04183C18.8814 7.2974 19.124 7.49663 19.4079 7.61434C19.6917 7.73205 20.0041 7.76294 20.3056 7.70312C20.607 7.64329 20.8839 7.49542 21.1013 7.27822C21.3187 7.06102 21.4667 6.78424 21.5268 6.48288C21.5869 6.18151 21.5562 5.86911 21.4388 5.58516C21.3213 5.30121 21.1222 5.05848 20.8668 4.88766C20.6113 4.71683 20.311 4.62559 20.0037 4.62547H20.003C19.5911 4.62566 19.1961 4.78933 18.9048 5.08052C18.6135 5.37172 18.4496 5.76664 18.4493 6.17854ZM7.86015 23.6295C6.59778 23.572 5.91164 23.3617 5.45566 23.1841C4.85115 22.9488 4.41983 22.6685 3.96634 22.2156C3.51285 21.7628 3.23214 21.3319 2.99783 20.7274C2.82008 20.2717 2.60981 19.5853 2.55242 18.323C2.48965 16.9583 2.47712 16.5483 2.47712 13.0907C2.47712 9.63312 2.49069 9.22429 2.55242 7.85839C2.60991 6.59607 2.82174 5.91109 2.99783 5.454C3.23317 4.84951 3.51347 4.4182 3.96634 3.96473C4.41921 3.51126 4.85011 3.23056 5.45566 2.99627C5.91143 2.81852 6.59778 2.60826 7.86015 2.55087C9.22497 2.4881 9.63495 2.47557 13.0911 2.47557C16.5473 2.47557 16.9577 2.48893 18.3236 2.55108C19.586 2.60857 20.271 2.82039 20.7281 2.99647C21.3326 3.23077 21.764 3.51209 22.2175 3.96494C22.6709 4.41779 22.9506 4.84972 23.186 5.45421C23.3637 5.90996 23.574 6.59627 23.6314 7.85859C23.6941 9.2245 23.7067 9.63333 23.7067 13.0909C23.7067 16.5485 23.6941 16.9573 23.6314 18.3232C23.5739 19.5855 23.3626 20.2717 23.186 20.7276C22.9506 21.3321 22.6703 21.7634 22.2175 22.2158C21.7646 22.6683 21.3326 22.949 20.7281 23.1843C20.2724 23.3621 19.586 23.5723 18.3236 23.6297C16.9588 23.6925 16.5488 23.705 13.0911 23.705C9.6334 23.705 9.22455 23.6925 7.86015 23.6297V23.6295ZM7.75294 0.221476C6.37455 0.284245 5.43267 0.502798 4.61011 0.822858C3.75876 1.15338 3.03709 1.5968 2.31646 2.31627C1.59583 3.03573 1.15353 3.75747 0.822992 4.60983C0.502919 5.43287 0.284358 6.3742 0.221586 7.75253C0.157779 9.13304 0.143173 9.57439 0.143173 13.0905C0.143173 16.6066 0.157779 17.048 0.221586 18.4285C0.284358 19.8069 0.502919 20.7481 0.822992 21.5712C1.15353 22.4225 1.59593 23.1456 2.31646 23.8647C3.03699 24.5839 3.75772 25.0267 4.61011 25.3581C5.43422 25.6782 6.37455 25.8967 7.75294 25.9595C9.13423 26.0223 9.57487 26.0379 13.0911 26.0379C16.6074 26.0379 17.0487 26.0233 18.4293 25.9595C19.8078 25.8967 20.7491 25.6782 21.5721 25.3581C22.4235 25.0267 23.1451 24.5842 23.8658 23.8647C24.5864 23.1453 25.0278 22.4225 25.3592 21.5712C25.6793 20.7481 25.8989 19.8068 25.9607 18.4285C26.0234 17.0469 26.038 16.6066 26.038 13.0905C26.038 9.57439 26.0234 9.13304 25.9607 7.75253C25.8979 6.37409 25.6793 5.43235 25.3592 4.60983C25.0278 3.75851 24.5853 3.03687 23.8658 2.31627C23.1463 1.59566 22.4235 1.15338 21.5732 0.822858C20.7491 0.502798 19.8077 0.283209 18.4303 0.221476C17.0496 0.158396 16.6084 0.143066 13.0927 0.143066C9.57694 0.143066 9.13475 0.157671 7.75346 0.221476" fill="#0B2D1F" />
</svg>
