<svg width="29" height="29" viewBox="0 0 29 29" fill="none" xmlns="http://www.w3.org/2000/svg">
	<path d="M25.9958 28.9801L19.9729 22.9551C14.6147 26.7645 7.23129 25.8327 2.98751 20.8115C-1.25626 15.7904 -0.944648 8.35495 3.70436 3.70648C8.35215 -0.94404 15.7883 -1.257 20.8104 2.98655C25.8325 7.2301 26.7648 14.6142 22.9551 19.9729L28.9801 26L26 28.9801H25.9958ZM12.6448 4.21648C8.64815 4.21559 5.2001 7.02103 4.38822 10.9343C3.57634 14.8476 5.62377 18.7932 9.29091 20.3822C12.958 21.9713 17.237 20.7671 19.5371 17.4987C21.8372 14.2303 21.5263 9.79597 18.7926 6.88051L20.0677 8.14506L18.6303 6.7119L18.605 6.68661C17.0281 5.09996 14.8818 4.21045 12.6448 4.21648Z" fill="#0B2D1F" />
</svg>
