<svg width="25" height="28" viewBox="0 0 25 28" fill="none" xmlns="http://www.w3.org/2000/svg">
	<path d="M24.0774 7.06757V11.5156H24.0741C23.8439 11.5364 23.6137 11.5476 23.3836 11.5492C20.8569 11.5492 18.4982 10.3364 17.1138 8.32197V19.3092C17.1138 23.794 13.2952 27.4308 8.58621 27.4308C3.87719 27.4308 0.0585632 23.7956 0.0585632 19.3092C0.0585632 14.8228 3.87551 11.1876 8.58621 11.1876C8.67525 11.1876 8.76261 11.1908 8.85165 11.1972C8.93901 11.202 9.02636 11.2084 9.11372 11.2132V15.2164C8.939 15.1956 8.76597 15.1668 8.58621 15.1668C6.18214 15.1668 4.23503 17.0228 4.23503 19.3108C4.23503 21.5988 6.18382 23.4548 8.58621 23.4548C10.9903 23.4548 13.1138 21.6516 13.1138 19.362L13.1558 0.701172H17.176C17.5557 4.13317 20.4621 6.81477 24.0774 7.06757Z" fill="#0B2D1F" />
</svg>
