<svg width="35" height="35" viewBox="0 0 35 35" fill="none" xmlns="http://www.w3.org/2000/svg">
	<path d="M17.5 34.9999C14.8541 35.0074 12.2417 34.4087 9.86308 33.2499C8.99254 32.8264 8.15847 32.3319 7.36935 31.7711L7.1296 31.5961C4.95931 29.9942 3.18492 27.9163 1.94266 25.5219C0.657706 23.0437 -0.00873716 20.2914 8.64892e-05 17.4999C8.64892e-05 7.83499 7.83511 0 17.5 0C27.1649 0 34.9999 7.83499 34.9999 17.4999C35.0086 20.2901 34.3428 23.0411 33.0591 25.5184C31.8186 27.9114 30.0466 29.9886 27.8791 31.5909C27.0615 32.1894 26.1938 32.7163 25.2857 33.1659L25.1457 33.2359C22.7656 34.4009 20.1499 35.0043 17.5 34.9999ZM17.5 26.2499C14.8776 26.2448 12.4735 27.7094 11.2753 30.0421C15.1977 31.9849 19.8023 31.9849 23.7247 30.0421V30.0334C22.5251 27.7032 20.1208 26.2419 17.5 26.2499ZM17.5 22.7499C21.2907 22.7549 24.7859 24.7976 26.6507 28.0979L26.6769 28.0751L26.7014 28.0541L26.6717 28.0804L26.6542 28.0944C31.0799 24.2708 32.6624 18.099 30.6225 12.6176C28.5827 7.13626 23.3504 3.50054 17.5018 3.50054C11.6531 3.50054 6.42085 7.13626 4.381 12.6176C2.34114 18.099 3.92364 24.2708 8.34934 28.0944C10.2153 24.7957 13.7102 22.7545 17.5 22.7499ZM17.5 20.9999C13.634 20.9999 10.5001 17.8659 10.5001 13.9999C10.5001 10.134 13.634 6.99997 17.5 6.99997C21.366 6.99997 24.4999 10.134 24.4999 13.9999C24.4999 15.8565 23.7624 17.6369 22.4497 18.9497C21.137 20.2624 19.3565 20.9999 17.5 20.9999ZM17.5 10.5C15.567 10.5 14 12.067 14 13.9999C14 15.9329 15.567 17.4999 17.5 17.4999C19.433 17.4999 21 15.9329 21 13.9999C21 12.067 19.433 10.5 17.5 10.5Z" fill="#0B2D1F" />
</svg>
